<svg width="88" height="88" viewBox="0 0 88 88" fill="none" xmlns="http://www.w3.org/2000/svg">
<path d="M52.9159 2.29874C52.4066 2.3767 51.9538 2.6602 51.6709 3.09253L20.8847 48.4517C20.5098 49.0045 20.4673 49.7204 20.7786 50.3086C21.0827 50.9039 21.6911 51.2796 22.3561 51.2867H38.2585L31.4674 83.5484C31.2977 84.3989 31.7504 85.2494 32.5498 85.5754C33.3491 85.9085 34.2688 85.625 34.7498 84.9092L63.725 39.55C64.0717 38.9901 64.0929 38.2884 63.7746 37.7073C63.4562 37.1332 62.8549 36.7717 62.197 36.7717H48.1056L54.8966 4.51C55.031 3.93592 54.8754 3.32641 54.4793 2.88699C54.0831 2.44757 53.5031 2.22787 52.9159 2.29874ZM49.5204 12.6747L44.1441 38.1892C44.0238 38.7278 44.1512 39.2877 44.4907 39.713C44.8374 40.1453 45.3538 40.3934 45.8985 40.4005H58.9147L37.0135 74.6467L42.22 49.8692C42.3402 49.3306 42.2129 48.7707 41.8733 48.3454C41.5267 47.9131 41.0103 47.665 40.4656 47.6579H25.7516L49.5204 12.6747Z" fill="#3C4652" stroke="#3C4652"/>
</svg>
