<svg width="88" height="88" viewBox="0 0 88 88" fill="none" xmlns="http://www.w3.org/2000/svg">
<path d="M13.2344 6.57422L9.32422 10.4844L11.2793 12.418L15.168 16.3066L17.1016 18.2617L21.0117 14.3516L19.0566 12.418L15.168 8.52929L13.2344 6.57422ZM74.7656 6.57422L72.832 8.52929L67.0098 14.3516L70.8984 18.2617L72.832 16.3066L78.6543 10.4844L74.7656 6.57422ZM44 11C31.8828 11 22 20.8828 22 33C22 40.6055 25.3301 44.9883 28.0156 48.7266C30.7227 52.4434 33 55.6016 33 63.25V68.75C33 72.3164 35.3418 75.3672 38.543 76.4844C38.5215 76.6562 38.5 76.8281 38.5 77C38.5 80.0293 40.9707 82.5 44 82.5C47.0293 82.5 49.5 80.0293 49.5 77C49.5 76.8281 49.5 76.6562 49.4785 76.4844C52.6797 75.3457 55 72.3164 55 68.75V63.25C55 55.6016 57.2773 52.4434 59.9844 48.7266C62.6699 44.9883 66 40.6055 66 33C66 20.8828 56.1172 11 44 11ZM44 16.5C53.1523 16.5 60.5 23.8477 60.5 33C60.5 39.1445 58.3301 41.6367 55.5156 45.4609C53.0879 48.834 50.6816 53.582 50.0156 60.5H37.9844C37.3184 53.582 34.9121 48.834 32.4844 45.4609C29.6699 41.6367 27.5 39.1445 27.5 33C27.5 23.8477 34.8477 16.5 44 16.5ZM5.5 33V38.5H16.5V33H5.5ZM71.5 33V38.5H82.5V33H71.5ZM17.1016 53.2383L15.168 55.1934L11.2793 59.082L9.32422 61.0156L13.2344 64.9043L19.0566 59.082L21.0117 57.1484L17.1016 53.2383ZM70.8984 53.2383L67.0098 57.1484L74.7656 64.9043L78.6543 61.0156L72.832 55.1934L70.8984 53.2383ZM38.5 66H49.5V68.75C49.5 70.2969 48.2969 71.5 46.75 71.5H41.25C39.7031 71.5 38.5 70.2969 38.5 68.75V66Z" fill="#3C4652"/>
</svg>
