<svg width="87" height="65" viewBox="0 0 87 65" fill="none" xmlns="http://www.w3.org/2000/svg">
<path d="M24.044 0.142822V6.54282H30.347V0.142822H24.044ZM14.0602 3.21782L8.81585 6.77407L12.3182 12.0991L17.5625 8.54282L14.0602 3.21782ZM39.82 3.21782L36.3176 8.54282L41.5619 12.0991L45.0643 6.77407L39.82 3.21782ZM58.7105 6.54282V12.9428H65.0135V6.54282H58.7105ZM75.1574 10.1616L71.2181 15.1553L76.1423 19.1553L80.0817 14.1616L75.1574 10.1616ZM27.1955 12.9428C22.2056 12.9428 18.0621 14.958 15.3835 18.0178C12.705 21.0776 11.438 25.0317 11.438 28.9428C11.438 32.8539 12.705 36.808 15.3835 39.8678C15.7724 40.312 16.3999 40.5394 16.8485 40.9366C8.13161 44.9733 1.98349 53.8082 1.98349 64.1428H8.2865C8.2865 53.501 16.715 44.9428 27.1955 44.9428C37.676 44.9428 46.1045 53.501 46.1045 64.1428H52.4075C52.4075 60.4011 51.5182 56.9019 50.087 53.6928C51.843 48.4399 56.6896 44.6296 62.5884 44.9616C69.2964 45.3387 74.4681 51.5022 74.4681 58.5241V64.1428H80.7711V58.5241C80.7711 51.272 76.9459 44.5814 71.0703 41.0866C71.1434 41.0078 71.2399 40.9484 71.3104 40.8678C73.4637 38.408 74.4681 35.2539 74.4681 32.1428C74.4681 29.0317 73.4637 25.8776 71.3104 23.4178C69.1571 20.958 65.8014 19.3428 61.862 19.3428C57.9227 19.3428 54.567 20.958 52.4137 23.4178C50.2604 25.8776 49.256 29.0317 49.256 32.1428C49.256 35.2539 50.2604 38.408 52.4137 40.8678C52.4737 40.9364 52.555 40.9881 52.6168 41.0553C49.917 42.6126 47.6102 44.8023 45.9383 47.4553C43.5873 44.7336 40.824 42.4562 37.5425 40.9366C37.9912 40.5394 38.6187 40.312 39.0075 39.8678C41.6861 36.808 42.953 32.8539 42.953 28.9428C42.953 25.0317 41.6861 21.0776 39.0075 18.0178C36.3289 14.958 32.1854 12.9428 27.1955 12.9428ZM2.80215 13.9053L0.143066 19.7116L5.86132 22.4053L8.51425 16.5991L2.80215 13.9053ZM27.1955 19.3428C30.6096 19.3428 32.7691 20.5276 34.2926 22.2678C35.816 24.008 36.65 26.4539 36.65 28.9428C36.65 31.4317 35.816 33.8776 34.2926 35.6178C32.7691 37.358 30.6096 38.5428 27.1955 38.5428C23.7814 38.5428 21.6219 37.358 20.0985 35.6178C18.5751 33.8776 17.741 31.4317 17.741 28.9428C17.741 26.4539 18.5751 24.008 20.0985 22.2678C21.6219 20.5276 23.7814 19.3428 27.1955 19.3428ZM85.326 22.2366L79.2446 23.9428L80.9249 30.1116L87.0002 28.4053L85.326 22.2366ZM61.862 25.7428C64.2257 25.7428 65.5973 26.5276 66.5955 27.6678C67.5936 28.808 68.1651 30.4539 68.1651 32.1428C68.1651 33.8317 67.5936 35.4776 66.5955 36.6178C65.5973 37.758 64.2257 38.5428 61.862 38.5428C59.4984 38.5428 58.1268 37.758 57.1286 36.6178C56.1305 35.4776 55.559 33.8317 55.559 32.1428C55.559 30.4539 56.1305 28.808 57.1286 27.6678C58.1268 26.5276 59.4984 25.7428 61.862 25.7428Z" fill="#3C4652"/>
</svg>
