<svg width="89" height="85" viewBox="0 0 89 85" fill="none" xmlns="http://www.w3.org/2000/svg">
<path d="M56.8021 0.916748C56.1146 0.916748 55.4271 1.03133 54.7396 1.37508L44.4271 6.41675L34.1146 1.37508C32.0521 0.343832 29.6458 1.14592 28.6146 3.09383L23 13.2917L11.6562 15.3542C9.47917 15.698 7.98958 17.7605 8.21875 20.0522L9.70833 31.6251L1.6875 39.8751C0.0833333 41.4792 0.0833333 44.0001 1.6875 45.7188L9.70833 54.198L8.10417 65.5418C7.76042 67.7188 9.25 69.8959 11.4271 70.2397L22.8854 72.4168L28.2708 82.6147C29.3021 84.5626 31.7083 85.3647 33.7708 84.448L44.3125 79.4063L54.625 84.448C55.1979 84.7918 55.8854 84.9063 56.4583 84.9063C57.9479 84.9063 59.4375 84.1043 60.125 82.7293L65.7396 72.5313L77.0833 70.5834C79.2604 70.2397 80.75 68.1772 80.5208 65.8855L79.0312 54.3126L87.0521 46.0626C88.6562 44.4584 88.6562 41.9376 87.0521 40.2188L79.0312 31.7397L80.6354 20.3959C80.9792 18.2188 79.4896 16.0417 77.1979 15.698L65.7396 13.5209L60.3542 3.323C60.0104 2.6355 59.3229 1.948 58.6354 1.60425C58.1771 1.14592 57.4896 0.916748 56.8021 0.916748ZM55.8854 7.56258L60.8125 16.8438C61.5 18.1042 62.6458 19.0209 64.0208 19.2501L74.3333 21.198L72.8438 31.5105C72.6146 32.8855 73.0729 34.3751 74.1042 35.2918L81.3229 42.8542L75.5937 48.698L73.9896 50.3022C72.9583 51.3334 72.5 52.7084 72.7292 54.0834L74.1042 64.5105L63.9062 66.3438C62.5312 66.573 61.2708 67.4897 60.6979 68.7501L55.6562 78.0313L46.2604 73.448C45.5729 73.1042 44.8854 72.9897 44.1979 72.9897C43.5104 72.9897 42.8229 73.1042 42.1354 73.448L32.625 78.0313L27.6979 68.8647C27.0104 67.6042 25.8646 66.6876 24.4896 66.4584L14.1771 64.5105L15.6667 54.198C15.8958 52.823 15.4375 51.3334 14.4062 50.3022L7.41667 42.8542L14.6354 35.4063C15.6667 34.3751 16.125 33.0001 15.8958 31.5105L14.5208 21.0834L24.8333 19.2501C26.2083 19.0209 27.4688 18.1042 28.0417 16.8438L33.0833 7.56258L42.4792 12.1459C43.7396 12.7188 45.2292 12.7188 46.4896 12.1459L55.8854 7.56258ZM59.5521 28.9897L39.8437 48.5834L31.5937 40.3334L26.2083 45.3751L39.8437 59.0105L64.8229 34.0313L59.5521 28.9897Z" fill="#3C4652"/>
</svg>
